<svg viewBox="0 0 1897 2062" fill="none" xmlns="http://www.w3.org/2000/svg"><g clip-path="url(#clip0)"><defs><clipPath id="a"><path d="M354.25 192.56h2008.46v1555.21H354.25z" overflow="visible"/></clipPath><clipPath id="b"><path d="M354.25 192.56h2008.46v1555.21H354.25z" overflow="visible"/></clipPath><clipPath id="c"><path d="M354.25 192.56h2008.46v1555.21H354.25z" overflow="visible"/></clipPath><clipPath id="d"><path d="M354.25 192.56h2008.46v1555.21H354.25z" overflow="visible"/></clipPath></defs><svg overflow="hidden" clip-path="url(#a)"><path d="M1907.36 1492.64l81.69-64.14L685.21 635.34l-81.72 64.14 1303.87 793.16z" fill="#D2AE13"/></svg><svg overflow="hidden" clip-path="url(#b)"><path fill-rule="evenodd" clip-rule="evenodd" d="M1995.2 1663.9l-80.81 48.36L380.24 780.28l80.8-48.35L1995.2 1663.9z" fill="#D2AE13"/></svg><svg overflow="hidden" clip-path="url(#c)"><path fill-rule="evenodd" clip-rule="evenodd" d="M1985.96 1658.81l-80.81 48.36L1223 1296 564 883.5l84.5-45.5 1337.46 820.81z" fill="#D2AE13"/></svg><svg overflow="hidden" clip-path="url(#d)"><path fill-rule="evenodd" clip-rule="evenodd" d="M2190.98 1453.17l-110.72 51.24-1272.5-782.57L887.11 660l1303.87 793.17z" fill="#D2AE13"/></svg><path d="M1051.57 278.68L154.84 828.24l-8.03-6.83 896.73-549.56 8.03 6.83z" fill="#BFA400"/><defs><clipPath id="e" clipPathUnits="objectBoundingBox"><path d="M0 0h50v50H0z"/></clipPath><clipPath id="f" clipPathUnits="objectBoundingBox"><path d="M0 0h50v50H0z"/></clipPath><clipPath id="g" clipPathUnits="objectBoundingBox"><path d="M0 0h50v50H0z"/></clipPath><clipPath id="h" clipPathUnits="objectBoundingBox"><path d="M0 0h50v50H0z"/></clipPath></defs><svg overflow="hidden" class="bar bar--red" clip-path="url(#e)"><g class="bar--inner"><path d="M694.93 557.68l-81.84-47.26-.01 95.84 81.85 47.26v-95.84z" fill="#EF142A"/><path d="M695.21 557.48l-81.83 47.25-81.85-47.25 81.85-47.26 81.83 47.26z" fill="#EF142A"/><path d="M613.38 604.73l-81.85-47.25-.01 95.83 81.86 47.26v-95.84z" fill="#EF142A"/><path d="M613.38 604.73l81.83-47.25v95.83l-81.83 47.26v-95.84z" fill="#AA0619"/><path d="M694.93 466.71l-81.84-47.26-.01 95.84 81.85 47.26v-95.84z" fill="#EF142A"/><path d="M695.21 466.51l-81.83 47.25-81.85-47.25 81.85-47.26 81.83 47.26z" fill="#EF142A"/><path d="M613.38 513.76l-81.85-47.25-.01 95.83 81.86 47.26v-95.84z" fill="#EF142A"/><path d="M613.38 513.76l81.83-47.25v95.83l-81.83 47.26v-95.84z" fill="#AA0619"/><path d="M694.93 375.74l-81.84-47.26-.01 95.84 81.85 47.26v-95.84z" fill="#EF142A"/><path d="M695.21 375.54l-81.83 47.25-81.85-47.25 81.85-47.26 81.83 47.26z" fill="#EF142A"/><path d="M613.38 422.79l-81.85-47.25-.01 95.83 81.86 47.26v-95.84z" fill="#EF142A"/><path d="M613.38 422.79l81.83-47.25v95.83l-81.83 47.26v-95.84z" fill="#AA0619"/><path d="M694.93 284.77l-81.84-47.26-.01 95.84 81.85 47.26v-95.84z" fill="#EF142A"/><path d="M695.21 284.57l-81.83 47.25-81.85-47.25 81.85-47.25 81.83 47.25z" fill="#EF142A"/><path d="M613.38 331.82l-81.85-47.25-.01 95.83 81.86 47.26v-95.84z" fill="#EF142A"/><path d="M613.38 331.82l81.83-47.25v95.83l-81.83 47.26v-95.84z" fill="#AA0619"/><path d="M695.21 193.6l-81.83 47.25-81.85-47.25 81.85-47.25 81.83 47.25z" fill="#EF142A"/><path d="M613.38 240.85l-81.85-47.25-.01 95.84 81.86 47.25v-95.84z" fill="#EF142A"/><path d="M613.38 240.85l81.83-47.25v95.84l-81.83 47.25v-95.84z" fill="#AA0619"/><path d="M694.93 101.26l-81.84-47.25-.01 95.83 81.85 47.26v-95.84z" fill="#EF142A"/><path d="M695.21 101.06l-81.83 47.25-81.85-47.25 81.85-47.25 81.83 47.25z" fill="#F0574E"/><path d="M613.38 148.31l-81.85-47.25-.01 95.84 81.86 47.25v-95.84z" fill="#EF142A"/><path d="M613.38 148.31l81.83-47.25v95.84l-81.83 47.25v-95.84z" fill="#AA0619"/></g></svg><svg class="bar bar--yellowOne" clip-path="url(#f)"><g class="bar--inner"><path d="M471.6 637.38l-81.85-47.25v95.84l81.85 47.25v-95.84z" fill="#FFB800"/><path d="M471.88 637.18l-81.84 47.26-81.85-47.26 81.85-47.25 81.84 47.25zm-81.84 47.26l-81.85-47.26v95.84l81.85 47.26v-95.84z" fill="#FFB800"/><path d="M390.04 684.44l81.84-47.26v95.84l-81.84 47.26v-95.84z" fill="#BF8D00"/><path d="M471.6 546.41l-81.85-47.25V595l81.85 47.25v-95.84z" fill="#FFB800"/><path d="M471.88 546.21l-81.84 47.26-81.85-47.26 81.85-47.25 81.84 47.25z" fill="#FFB800"/><path d="M390.04 593.47l-81.85-47.26v95.84l81.85 47.26v-95.84z" fill="#FFB800"/><path d="M390.04 593.47l81.84-47.26v95.84l-81.84 47.26v-95.84z" fill="#BF8D00"/><path d="M471.6 455.44l-81.85-47.25v95.84l81.85 47.25v-95.84z" fill="#FFB800"/><path d="M471.88 455.24l-81.84 47.26-81.85-47.26 81.85-47.25 81.84 47.25z" fill="#FFB800"/><path d="M390.04 502.5l-81.85-47.26v95.84l81.85 47.26V502.5z" fill="#FFB800"/><path d="M390.04 502.5l81.84-47.26v95.84l-81.84 47.26V502.5z" fill="#BF8D00"/><path d="M471.6 364.47l-81.85-47.25v95.84l81.85 47.26v-95.85z" fill="#FFB800"/><path d="M471.88 364.27l-81.84 47.26-81.85-47.26 81.85-47.25 81.84 47.25z" fill="#FFD55E"/><path d="M390.04 411.53l-81.85-47.26v95.84l81.85 47.26v-95.84z" fill="#FFB800"/><path d="M390.04 411.53l81.84-47.26v95.84l-81.84 47.26v-95.84z" fill="#BF8D00"/></g></svg><svg class="bar bar--yellow" clip-path="url(#g)"><g class="bar--inner"><path d="M926.72 598.62l-81.84 47.25-81.85-47.25 81.85-47.26 81.84 47.26z" fill="#FF8A7A"/><path d="M844.88 645.87l-81.85-47.25-.01 95.83 81.86 47.26v-95.84z" fill="#FDB813"/><path d="M844.88 645.87l81.84-47.25v95.83l-81.84 47.26v-95.84z" fill="#BF8D0D"/><path d="M926.72 504.51l-81.84 47.25-81.85-47.25 81.85-47.25 81.84 47.25z" fill="#FF8A7A"/><path d="M844.88 551.76l-81.85-47.25-.01 95.84 81.86 47.25v-95.84z" fill="#FDB813"/><path d="M844.88 551.76l81.84-47.25v95.84l-81.84 47.25v-95.84z" fill="#BF8D0D"/><path d="M926.72 410.4l-81.84 47.26-81.85-47.26 81.85-47.25 81.84 47.25z" fill="#FFD568"/><path d="M844.88 457.66l-81.85-47.26-.01 95.84 81.86 47.26v-95.84z" fill="#FDB813"/><path d="M844.88 457.66l81.84-47.26v95.84l-81.84 47.26v-95.84z" fill="#BF8D0D"/><path d="M657.91 749.16l-81.84 47.26-81.85-47.26 81.85-47.25 81.84 47.25z" fill="#FF8A7A"/></g></svg><svg class="bar bar--yellow" clip-path="url(#h)"><g class="bar--inner"><path d="M576.07 796.42l-81.85-47.26V845l81.85 47.26v-95.84z" fill="#FDB813"/><path d="M576.07 796.42l81.84-47.26V845l-81.84 47.26v-95.84z" fill="#BF8D0D"/><path d="M657.91 659.76l-81.84 47.26-81.85-47.26 81.85-47.25 81.84 47.25z" fill="#FFD568"/><path d="M576.07 707.02l-81.85-47.26v95.84l81.85 47.26v-95.84z" fill="#FDB813"/><path d="M576.07 707.02l81.84-47.26v95.84l-81.84 47.26v-95.84z" fill="#BF8D0D"/></g></svg></g><defs><clipPath id="clip0"><path fill="#fff" d="M0 0h1896.67v2061.74H0z"/></clipPath></defs></svg>