<svg viewBox="0 0 2067 1664" fill="none" xmlns="http://www.w3.org/2000/svg"><mask id="mask0" maskUnits="userSpaceOnUse" x="457" y="591" width="1386" height="858"><path d="M1760.87 1448.3l81.69-64.14L538.72 591 457 655.14l1303.87 793.16z" fill="#D2AE13"/></mask><g mask="url(#mask0)"><path d="M1760.55 1444.83l81.69-64.14L538.4 587.53l-81.72 64.14 1303.87 793.16z" fill="#D2AE13"/></g><mask id="mask1" maskUnits="userSpaceOnUse" x="243" y="621" width="1804" height="845"><path fill-rule="evenodd" clip-rule="evenodd" d="M505.31 793.108l-80.81 48.36L243.43 731.47l80.8-48.35 181.08 109.988z" fill="#D2AE13"/></mask><g mask="url(#mask1)"><path fill-rule="evenodd" clip-rule="evenodd" d="M506.81 796.236L426 844.596 241.43 732.47l80.8-48.35 184.58 112.116z" fill="#D2AE13"/></g><mask id="mask2" maskUnits="userSpaceOnUse" x="395" y="605" width="1611" height="1043"><path fill-rule="evenodd" clip-rule="evenodd" d="M1817.15 1599l-80.81 48.36-682.15-411.17-659-412.5 84.5-45.5L1817.15 1599z" fill="#D2AE13"/></mask><g mask="url(#mask2)"><path fill-rule="evenodd" clip-rule="evenodd" d="M1839.15 1611l-80.81 48.36-682.15-411.17-659-412.5 84.5-45.5L1839.15 1611z" fill="#D2AE13"/></g><mask id="mask3" maskUnits="userSpaceOnUse" x="680" y="616" width="1386" height="849"><path fill-rule="evenodd" clip-rule="evenodd" d="M2065.86 1410.08l-110.59 51.52L680.8 682.244l79.193-62.041L2065.86 1410.08z" fill="#D2AE13"/></mask><g mask="url(#mask3)"><path fill-rule="evenodd" clip-rule="evenodd" d="M2061.85 1403.09l-110.59 51.52L676.782 675.254l79.194-62.04L2061.85 1403.09z" fill="#D2AE13"/></g><path d="M904.76 230.87L8.03 780.43 0 773.6l896.73-549.56 8.03 6.83z" fill="#BFA400"/><mask id="mask4" maskUnits="userSpaceOnUse" x="383" y="0" width="164" height="647"><path d="M546.41 503.87l-81.84-47.26-.01 95.84 81.85 47.26v-95.84z" fill="#fff"/><path d="M546.69 503.67l-81.83 47.25-81.85-47.25 81.85-47.26 81.83 47.26z" fill="#fff"/><path d="M464.86 550.92l-81.85-47.25-.01 95.83 81.86 47.26v-95.84zM464.86 550.92l81.83-47.25v95.83l-81.83 47.26v-95.84z" fill="#fff"/><path d="M546.41 412.9l-81.84-47.26-.01 95.84 81.85 47.26V412.9z" fill="#fff"/><path d="M546.69 412.7l-81.83 47.25-81.85-47.25 81.85-47.26 81.83 47.26zM464.86 459.95l-81.85-47.25-.01 95.83 81.86 47.26v-95.84z" fill="#fff"/><path d="M464.86 459.95l81.83-47.25v95.83l-81.83 47.26v-95.84z" fill="#fff"/><path d="M546.41 321.93l-81.84-47.26-.01 95.84 81.85 47.26v-95.84z" fill="#fff"/><path d="M546.69 321.73l-81.83 47.25-81.85-47.25 81.85-47.26 81.83 47.26zM464.86 368.98l-81.85-47.25-.01 95.83 81.86 47.26v-95.84z" fill="#fff"/><path d="M464.86 368.98l81.83-47.25v95.83l-81.83 47.26v-95.84z" fill="#fff"/><path d="M546.41 230.96l-81.84-47.26-.01 95.84 81.85 47.26v-95.84z" fill="#fff"/><path d="M546.69 230.76l-81.83 47.25-81.85-47.25 81.85-47.25 81.83 47.25zM464.86 278.01l-81.85-47.25-.01 95.83 81.86 47.26v-95.84z" fill="#fff"/><path d="M464.86 278.01l81.83-47.25v95.83l-81.83 47.26v-95.84zM546.69 139.79l-81.83 47.25-81.85-47.25 81.85-47.25 81.83 47.25z" fill="#fff"/><path d="M464.86 187.04l-81.85-47.25-.01 95.84 81.86 47.25v-95.84zM464.86 187.04l81.83-47.25v95.84l-81.83 47.25v-95.84z" fill="#fff"/><path d="M546.41 47.45L464.57.2l-.01 95.83 81.85 47.26V47.45z" fill="#fff"/><path d="M546.69 47.25L464.86 94.5l-81.85-47.25L464.86 0l81.83 47.25z" fill="#fff"/><path d="M464.86 94.5l-81.85-47.25-.01 95.84 81.86 47.25V94.5zM464.86 94.5l81.83-47.25v95.84l-81.83 47.25V94.5z" fill="#fff"/></mask><g mask="url(#mask4)"><path d="M548.12 509.87l-81.84-47.26-.01 95.84 81.85 47.26v-95.84z" fill="#EF142A"/><path d="M548.4 509.67l-81.83 47.25-81.85-47.25 81.85-47.26 81.83 47.26z" fill="#EF142A"/><path d="M466.57 556.92l-81.85-47.25-.01 95.83 81.86 47.26v-95.84z" fill="#EF142A"/><path d="M466.57 556.92l81.83-47.25v95.83l-81.83 47.26v-95.84z" fill="#AA0619"/><path d="M548.12 418.9l-81.84-47.26-.01 95.84 81.85 47.26V418.9z" fill="#EF142A"/><path d="M548.4 418.7l-81.83 47.25-81.85-47.25 81.85-47.26 81.83 47.26z" fill="#EF142A"/><path d="M466.57 465.95l-81.85-47.25-.01 95.83 81.86 47.26v-95.84z" fill="#EF142A"/><path d="M466.57 465.95l81.83-47.25v95.83l-81.83 47.26v-95.84z" fill="#AA0619"/><path d="M548.12 327.93l-81.84-47.26-.01 95.84 81.85 47.26v-95.84z" fill="#EF142A"/><path d="M548.4 327.73l-81.83 47.25-81.85-47.25 81.85-47.26 81.83 47.26z" fill="#EF142A"/><path d="M466.57 374.98l-81.85-47.25-.01 95.83 81.86 47.26v-95.84z" fill="#EF142A"/><path d="M466.57 374.98l81.83-47.25v95.83l-81.83 47.26v-95.84z" fill="#AA0619"/><path d="M548.12 236.96l-81.84-47.26-.01 95.84 81.85 47.26v-95.84z" fill="#EF142A"/><path d="M548.4 236.76l-81.83 47.25-81.85-47.25 81.85-47.25 81.83 47.25z" fill="#EF142A"/><path d="M466.57 284.01l-81.85-47.25-.01 95.83 81.86 47.26v-95.84z" fill="#EF142A"/><path d="M466.57 284.01l81.83-47.25v95.83l-81.83 47.26v-95.84z" fill="#AA0619"/><path d="M548.4 145.79l-81.83 47.25-81.85-47.25 81.85-47.25 81.83 47.25z" fill="#EF142A"/><path d="M466.57 193.04l-81.85-47.25-.01 95.84 81.86 47.25v-95.84z" fill="#EF142A"/><path d="M466.57 193.04l81.83-47.25v95.84l-81.83 47.25v-95.84z" fill="#AA0619"/><path d="M548.12 53.45L466.28 6.2l-.01 95.83 81.85 47.26V53.45z" fill="#EF142A"/><path d="M548.4 53.25l-81.83 47.25-81.85-47.25L466.57 6l81.83 47.25z" fill="#F0574E"/><path d="M466.57 100.5l-81.85-47.25-.01 95.84 81.86 47.25V100.5z" fill="#EF142A"/><path d="M466.57 100.5l81.83-47.25v95.84l-81.83 47.25V100.5z" fill="#AA0619"/></g><mask id="mask5" maskUnits="userSpaceOnUse" x="159" y="270" width="164" height="464"><path d="M322.41 590.36l-81.85-47.25v95.84l81.85 47.25v-95.84z" fill="#fff"/><path d="M322.69 590.16l-81.84 47.26L159 590.16l81.85-47.25 81.84 47.25zm-81.84 47.26L159 590.16V686l81.85 47.26v-95.84z" fill="#fff"/><path d="M240.85 637.42l81.84-47.26V686l-81.84 47.26v-95.84z" fill="#fff"/><path d="M322.41 499.39l-81.85-47.25v95.84l81.85 47.25v-95.84z" fill="#fff"/><path d="M322.69 499.19l-81.84 47.26L159 499.19l81.85-47.25 81.84 47.25z" fill="#fff"/><path d="M240.85 546.45L159 499.19v95.84l81.85 47.26v-95.84zM240.85 546.45l81.84-47.26v95.84l-81.84 47.26v-95.84z" fill="#fff"/><path d="M322.41 408.42l-81.85-47.25v95.84l81.85 47.25v-95.84z" fill="#fff"/><path d="M322.69 408.22l-81.84 47.26L159 408.22l81.85-47.25 81.84 47.25z" fill="#fff"/><path d="M240.85 455.48L159 408.22v95.84l81.85 47.26v-95.84zM240.85 455.48l81.84-47.26v95.84l-81.84 47.26v-95.84z" fill="#fff"/><path d="M322.41 317.45l-81.85-47.25v95.84l81.85 47.26v-95.85z" fill="#fff"/><path d="M322.69 317.25l-81.84 47.26L159 317.25 240.85 270l81.84 47.25z" fill="#fff"/><path d="M240.85 364.51L159 317.25v95.84l81.85 47.26v-95.84zM240.85 364.51l81.84-47.26v95.84l-81.84 47.26v-95.84z" fill="#fff"/></mask><g mask="url(#mask5)"><path d="M324.79 589.57l-81.85-47.25v95.84l81.85 47.25v-95.84z" fill="#FFB800"/><path d="M325.07 589.37l-81.84 47.26-81.85-47.26 81.85-47.25 81.84 47.25zm-81.84 47.26l-81.85-47.26v95.84l81.85 47.26v-95.84z" fill="#FFB800"/><path d="M243.23 636.63l81.84-47.26v95.84l-81.84 47.26v-95.84z" fill="#BF8D00"/><path d="M324.79 498.6l-81.85-47.25v95.84l81.85 47.25V498.6z" fill="#FFB800"/><path d="M325.07 498.4l-81.84 47.26-81.85-47.26 81.85-47.25 81.84 47.25z" fill="#FFB800"/><path d="M243.23 545.66l-81.85-47.26v95.84l81.85 47.26v-95.84z" fill="#FFB800"/><path d="M243.23 545.66l81.84-47.26v95.84l-81.84 47.26v-95.84z" fill="#BF8D00"/><path d="M324.79 407.63l-81.85-47.25v95.84l81.85 47.25v-95.84z" fill="#FFB800"/><path d="M325.07 407.43l-81.84 47.26-81.85-47.26 81.85-47.25 81.84 47.25z" fill="#FFB800"/><path d="M243.23 454.69l-81.85-47.26v95.84l81.85 47.26v-95.84z" fill="#FFB800"/><path d="M243.23 454.69l81.84-47.26v95.84l-81.84 47.26v-95.84z" fill="#BF8D00"/><path d="M324.79 316.66l-81.85-47.25v95.84l81.85 47.26v-95.85z" fill="#FFB800"/><path d="M325.07 316.46l-81.84 47.26-81.85-47.26 81.85-47.25 81.84 47.25z" fill="#FFD55E"/><path d="M243.23 363.72l-81.85-47.26v95.84l81.85 47.26v-95.84z" fill="#FFB800"/><path d="M243.23 363.72l81.84-47.26v95.84l-81.84 47.26v-95.84z" fill="#BF8D00"/></g><mask id="mask6" maskUnits="userSpaceOnUse" x="616" y="311" width="164" height="379"><path d="M779.7 546.47l-81.84 47.25-81.85-47.25 81.85-47.26 81.84 47.26z" fill="#fff"/><path d="M697.86 593.72l-81.85-47.25-.01 95.83 81.86 47.26v-95.84zM697.86 593.72l81.84-47.25v95.83l-81.84 47.26v-95.84zM779.7 452.36l-81.84 47.25-81.85-47.25 81.85-47.25 81.84 47.25z" fill="#fff"/><path d="M697.86 499.61l-81.85-47.25-.01 95.84 81.86 47.25v-95.84zM697.86 499.61l81.84-47.25v95.84l-81.84 47.25v-95.84zM779.7 358.25l-81.84 47.26-81.85-47.26L697.86 311l81.84 47.25z" fill="#fff"/><path d="M697.86 405.51l-81.85-47.26-.01 95.84 81.86 47.26v-95.84zM697.86 405.51l81.84-47.26v95.84l-81.84 47.26v-95.84z" fill="#fff"/></mask><g mask="url(#mask6)"><path d="M779.91 550.81l-81.84 47.25-81.85-47.25 81.85-47.26 81.84 47.26z" fill="#FF8A7A"/><path d="M698.07 598.06l-81.85-47.25-.01 95.83 81.86 47.26v-95.84z" fill="#FDB813"/><path d="M698.07 598.06l81.84-47.25v95.83l-81.84 47.26v-95.84z" fill="#BF8D0D"/><path d="M779.91 456.7l-81.84 47.25-81.85-47.25 81.85-47.25 81.84 47.25z" fill="#FF8A7A"/><path d="M698.07 503.95l-81.85-47.25-.01 95.84 81.86 47.25v-95.84z" fill="#FDB813"/><path d="M698.07 503.95l81.84-47.25v95.84l-81.84 47.25v-95.84z" fill="#BF8D0D"/><path d="M779.91 362.59l-81.84 47.26-81.85-47.26 81.85-47.25 81.84 47.25z" fill="#FFD568"/><path d="M698.07 409.85l-81.85-47.26-.01 95.84 81.86 47.26v-95.84z" fill="#FDB813"/><path d="M698.07 409.85l81.84-47.26v95.84l-81.84 47.26v-95.84z" fill="#BF8D0D"/></g><mask id="mask7" maskUnits="userSpaceOnUse" x="343" y="562" width="164" height="280"><path d="M506.69 698.65l-81.84 47.26L343 698.65l81.85-47.25 81.84 47.25z" fill="#fff"/><path d="M424.85 745.91L343 698.65v95.84l81.85 47.26v-95.84zM424.85 745.91l81.84-47.26v95.84l-81.84 47.26v-95.84zM506.69 609.25l-81.84 47.26L343 609.25 424.85 562l81.84 47.25z" fill="#fff"/><path d="M424.85 656.51L343 609.25v95.84l81.85 47.26v-95.84zM424.85 656.51l81.84-47.26v95.84l-81.84 47.26v-95.84z" fill="#fff"/></mask><g mask="url(#mask7)"><path d="M511.1 701.35l-81.84 47.26-81.85-47.26 81.85-47.25 81.84 47.25z" fill="#FF8A7A"/><path d="M429.26 748.61l-81.85-47.26v95.84l81.85 47.26v-95.84z" fill="#FDB813"/><path d="M429.26 748.61l81.84-47.26v95.84l-81.84 47.26v-95.84z" fill="#BF8D0D"/><path d="M511.1 611.95l-81.84 47.26-81.85-47.26 81.85-47.25 81.84 47.25z" fill="#FFD568"/><path d="M429.26 659.21l-81.85-47.26v95.84l81.85 47.26v-95.84z" fill="#FDB813"/><path d="M429.26 659.21l81.84-47.26v95.84l-81.84 47.26v-95.84z" fill="#BF8D0D"/></g></svg>